<?xml version="1.0" encoding="iso-8859-1"?>
<!-- Uploaded to: SVG Repo, www.svgrepo.com, Generator: SVG Repo Mixer Tools -->
<!DOCTYPE svg PUBLIC "-//W3C//DTD SVG 1.1//EN" "http://www.w3.org/Graphics/SVG/1.1/DTD/svg11.dtd">
<svg fill="#000000" version="1.1" id="Capa_1" xmlns="http://www.w3.org/2000/svg" xmlns:xlink="http://www.w3.org/1999/xlink" 
	 width="800px" height="800px" viewBox="0 0 31.596 31.596"
	 xml:space="preserve">
<g>
	<path d="M29.354,2.942H2.241v20.195h27.113V2.942z M26.311,20.092H5.285V5.986h21.025V20.092L26.311,20.092z M31.596,24.977v3.677
		H0v-3.677h12.097v1.838h7.401v-1.838H31.596z M11.627,16.168l-3.171-3.17l3.115-3.114l1.175,1.175l-1.939,1.939l1.995,1.995
		L11.627,16.168z M15.003,17.492l-1.525-0.657l3.565-8.275l1.525,0.657L15.003,17.492z M18.793,14.993l1.995-1.995l-1.938-1.939
		l1.174-1.175l3.115,3.114l-3.17,3.17L18.793,14.993z"/>
</g>
</svg>